<?xml version="1.0" encoding="UTF-8" standalone="no"?>
<!-- Created with Inkscape (http://www.inkscape.org/) -->

<svg
   width="512"
   height="512"
   viewBox="0 0 512 512"
   version="1.1"
   id="svg1"
   xml:space="preserve"
   inkscape:version="1.4.3 (0d15f75, 2025-12-25)"
   sodipodi:docname="dessin.svg"
   inkscape:export-filename="dessin.png"
   inkscape:export-xdpi="96"
   inkscape:export-ydpi="96"
   xmlns:inkscape="http://www.inkscape.org/namespaces/inkscape"
   xmlns:sodipodi="http://sodipodi.sourceforge.net/DTD/sodipodi-0.dtd"
   xmlns="http://www.w3.org/2000/svg"
   xmlns:svg="http://www.w3.org/2000/svg"><sodipodi:namedview
     id="namedview1"
     pagecolor="#ffffff"
     bordercolor="#000000"
     borderopacity="0.25"
     inkscape:showpageshadow="2"
     inkscape:pageopacity="0.0"
     inkscape:pagecheckerboard="0"
     inkscape:deskcolor="#d1d1d1"
     inkscape:document-units="px"
     inkscape:zoom="1.5097656"
     inkscape:cx="255.66882"
     inkscape:cy="256"
     inkscape:window-width="1920"
     inkscape:window-height="991"
     inkscape:window-x="-9"
     inkscape:window-y="-9"
     inkscape:window-maximized="1"
     inkscape:current-layer="layer1"><inkscape:page
       x="0"
       y="0"
       width="512"
       height="512"
       id="page2"
       margin="0"
       bleed="0" /></sodipodi:namedview><defs
     id="defs1" /><g
     inkscape:label="Calque 1"
     inkscape:groupmode="layer"
     id="layer1"><path
       style="fill:#000000"
       d="M 243.99569,491.58649 C 227.91647,489.80416 200.2757,482.42456 184.65783,475.74431 121.68289,448.80799 75.554528,395.3807 58.642565,329.78956 c -3.723011,-14.43928 -7.54329,-38.80461 -6.281996,-40.0659 0.521244,-0.52125 18.834252,-5.85735 20.101872,-5.85735 0.275279,0 2.487804,4.05 4.91672,9 9.829406,20.0318 31.963049,34.83494 52.283199,34.96741 l 5,0.0326 v -5.85753 -5.85753 l -8.16988,-1.4391 c -10.51347,-1.85191 -18.1686,-5.61129 -26.28437,-12.90807 -6.40334,-5.75715 -15.000013,-19.59462 -13.256524,-21.33811 0.490505,-0.4905 20.876094,-6.42581 45.301304,-13.18956 24.42521,-6.76375 45.73948,-12.7321 47.36505,-13.263 2.45072,-0.80038 3.10722,-0.36112 3.84327,2.57152 1.33176,5.30617 -0.36916,18.0329 -3.54428,26.51917 -3.06187,8.18357 -15.56823,22.16335 -23.5879,26.36687 -4.01639,2.10519 -4.33334,2.76347 -4.33334,9 0,3.70077 0.36602,6.72868 0.81337,6.72868 0.44735,0 4.48798,-1.95 8.97918,-4.33334 22.65183,-12.02057 37.1148,-37.57394 35.06076,-61.94582 -0.65384,-7.75796 -0.42416,-9.8285 1.19048,-10.7321 1.10033,-0.61578 4.39062,-4.3004 7.31174,-8.18805 5.40031,-7.18713 6.96738,-13.46737 3.36045,-13.46737 -1.07287,0 -14.42287,4.55667 -29.66666,10.12594 -65.96534,24.1002 -126.012973,45.87406 -126.510842,45.87406 -0.296164,0 -0.53848,-2.33005 -0.53848,-5.1779 0,-4.29033 0.514245,-5.28808 3,-5.82067 4.844212,-1.03793 160.164452,-49.17015 162.066872,-50.22295 0.95345,-0.52763 8.90345,-7.48041 17.66667,-15.45062 13.14669,-11.957 15.93313,-15.14738 15.93313,-18.24291 0,-2.40607 -0.70059,-3.75162 -1.95336,-3.75162 -1.55229,0 -123.64808,48.55242 -184.524574,73.37774 l -12.47793,5.08848 0.916407,-8.89978 c 4.724556,-45.88298 26.146692,-91.43997 59.181777,-125.85781 29.21696,-30.439904 62.59957,-49.939434 103.23788,-60.303534 33.22751,-8.47411 62.24041,-9.26102 95.59194,-2.59272 21.1688,4.23249 33.03005,8.18201 51.38384,17.10963 48.78163,23.728294 86.42691,63.734984 107.34448,114.077994 6.4589,15.54485 13.13772,43.48768 14.85451,62.14827 5.00851,54.43967 -13.86851,114.74666 -48.77678,155.82869 -12.18058,14.33479 -13.32339,15.50583 -24.47123,25.07585 -47.44404,40.72901 -106.53286,59.367 -166.97363,52.66737 z M 127.89977,407.53298 c 7.19082,-14.88712 20.90941,-32.56115 33.24228,-42.82692 5.60284,-4.66375 19.18698,-14.59761 30.18698,-22.07524 11,-7.47762 23.3,-17.01093 27.33333,-21.18511 4.03333,-4.17419 11.98333,-11.67945 17.66667,-16.67835 5.68333,-4.99891 10.33333,-9.55168 10.33333,-10.11727 0,-0.56559 -2.4757,-1.77008 -5.50156,-2.67665 -6.29187,-1.88509 -18.06172,-12.18674 -20.50781,-17.94961 l -1.63096,-3.84249 -10.37554,17.45621 c -11.92071,20.05586 -15.39982,24.0283 -25.98585,29.67059 -9.77414,5.20956 -15.60151,10.86306 -28.90098,28.03866 -13.1228,16.94741 -14.29283,17.98783 -21.57166,19.18205 -8.05665,1.32182 -10.85897,4.50679 -10.85897,12.34171 0,3.48567 -1.2,10.53376 -2.66667,15.66242 -1.46667,5.12867 -2.66667,11.30656 -2.66667,13.72864 0,4.74185 3.27019,12.27136 5.32966,12.27136 0.69364,0 3.65213,-4.95 6.57442,-11 z m 97.66455,-23.26907 c 12.51891,-5.85831 25.27384,-18.28621 31.01714,-30.22187 5.54583,-11.52529 6.77476,-15.50906 4.7843,-15.50906 -4.28983,0 -11.91096,5.79429 -16.62644,12.64096 -2.86853,4.16498 -9.06315,11.04533 -13.76583,15.28966 -8.41972,7.59911 -8.72749,7.74238 -20.14916,9.3795 -13.84308,1.9842 -22.50387,0.62157 -33.12362,-5.21144 l -6.96166,-3.82375 -4.65262,3.5292 c -2.55894,1.94106 -4.50611,4.03944 -4.32706,4.66307 0.65507,2.28147 15.10523,10.18284 22.23632,12.15887 4.95111,1.37195 11.49663,1.88566 20.14942,1.5814 10.90596,-0.38349 14.0983,-1.05068 21.41921,-4.47654 z m 0.43137,-23.33589 c 10.32463,-19.2066 19.92601,-25.78023 48,-32.8634 21.22632,-5.35548 42.65592,-12.72898 48.78794,-16.78696 3.11244,-2.05972 5.54276,-5.04 6.51687,-7.99158 4.59368,-13.91898 -21.06188,-35.40096 -59.30481,-49.65726 l -12,-4.47339 9.71217,0.82866 9.71218,0.82867 6.28782,-5.84443 c 3.45831,-3.21443 10.78783,-8.77088 16.28783,-12.34766 5.5,-3.57677 12.52623,-8.91132 15.61384,-11.85455 l 5.61383,-5.35133 1.23315,3.22576 c 1.47861,3.86786 3.87013,6.0905 13.53918,12.58307 11.03143,7.40738 19.83913,11.54012 22.67566,10.63984 1.38166,-0.43852 5.53789,-4.108 9.23607,-8.1544 7.54046,-8.25046 28.35413,-48.02682 29.79493,-56.94015 0.85627,-5.29726 -2.39092,-14.79446 -4.59304,-13.43347 -0.61249,0.37854 -1.11362,0.0528 -1.11362,-0.72377 0,-0.77662 -1.17591,-1.41203 -2.61314,-1.41203 -1.93124,0 -3.03597,1.47874 -4.23345,5.66667 -2.17585,7.60962 -3.90305,9.85357 -5.45284,7.08425 -3.44999,-6.16479 -5.73739,1.82108 -3.06501,10.70071 2.31116,7.67942 2.12508,8.066 -11.63091,24.16243 l -8.99535,10.52582 -7.98537,-7.76554 c -4.39195,-4.27104 -8.87249,-9.48104 -9.95676,-11.57778 -2.57002,-4.96987 -9.94031,-11.13054 -12.25386,-10.24275 -3.24735,1.24613 -1.91538,-0.27323 2.78773,-3.17991 4.29898,-2.65692 4.86358,-2.70782 8.60045,-0.77541 6.45628,3.33867 9.11144,2.65533 12.04795,-3.10071 1.45034,-2.84288 3.45701,-5.48356 4.45927,-5.86816 1.38259,-0.53055 1.79845,-3.92231 1.72346,-14.05655 -0.0913,-12.33772 -0.35326,-13.6296 -3.43217,-16.92518 -1.83333,-1.96236 -4.95353,-4.41092 -6.93378,-5.44124 -4.44697,-2.31376 -15.26944,-2.40584 -19.69286,-0.16757 -5.47101,2.76837 -9.37336,9.87203 -9.37336,17.06286 0,7.47537 -2.39024,10.56473 -8.17392,10.56473 -2.82124,0 -3.69715,0.48627 -3.00214,1.66667 0.53972,0.91666 -1.47234,-0.82989 -4.47124,-3.88124 -4.46133,-4.53934 -6.86751,-5.82062 -13.23596,-7.04808 -4.28087,-0.8251 -9.5834,-2.29477 -11.7834,-3.26593 -2.2,-0.97116 -9.60805,-3.37689 -16.46234,-5.34608 -15.03903,-4.3206 -13.60607,-4.65118 -44.20433,10.19794 -12.1,5.87205 -24.7,11.66311 -28,12.86903 -9.33122,3.40991 -14.44369,6.9781 -16.64512,11.61728 -2.74724,5.78937 -2.59004,6.28876 1.64512,5.22644 l 3.66667,-0.91973 -3.0122,3.20743 c -4.62706,4.92697 -2.13744,5.29179 6.46794,0.94781 4.29085,-2.16601 8.14584,-3.93821 8.56665,-3.93821 0.42081,0 0.37115,2.1 -0.11036,4.66667 -0.48151,2.56667 -0.33576,4.66667 0.3239,4.66667 1.30618,0 9.15198,-9.05785 13.09812,-15.1216 2.92795,-4.49915 4.85772,-5.32584 23.99928,-10.28097 8.06667,-2.0882 16.5614,-4.53757 18.87718,-5.44304 3.92495,-1.53465 4.53658,-1.36002 9.018,2.57472 5.89101,5.17238 9.86948,7.25719 19.75582,10.35253 6.84462,2.143 7.71485,2.82705 8.25673,6.49025 2.42974,16.42518 2.84959,20.76144 2.01021,20.76144 -1.05263,0 -5.21331,-8.49062 -8.0134,-16.35281 -0.98321,-2.76071 -2.41396,-4.81423 -3.17944,-4.56338 -0.76547,0.25086 -3.86342,6.44744 -6.88433,13.77018 -7.56314,18.33319 -10.83185,23.01623 -23.21706,33.26276 -11.74298,9.71521 -15.95704,16.1616 -15.95704,24.41 0,10.8121 6.0407,19.03893 18.66666,25.42213 9.84855,4.97904 19.36539,7.5302 35.33334,9.47173 12.7712,1.55284 21.6758,3.63155 16.39896,3.82821 -7.62105,0.28403 -16.81753,3.68299 -25.76009,9.52076 -16.95024,11.06523 -22.14861,13.23042 -31.76462,13.23042 -5.64109,0 -9.06702,0.6257 -10.07482,1.84003 -0.83989,1.01201 -2.96486,6.56201 -4.72214,12.33333 -1.75728,5.77132 -4.19436,13.19331 -5.41573,16.49331 -1.45651,3.93533 -1.93565,7.7915 -1.39239,11.20616 1.58479,9.9613 3.70509,9.77829 9.39749,-0.81112 z m -79.85303,-16.46921 c 3.43549,-4.50415 3.62193,-5.51925 3.73452,-20.33333 0.10752,-14.14641 0.46469,-16.33444 3.85119,-23.5925 3.96321,-8.49409 13.21813,-18.96071 20.93399,-23.67477 2.56667,-1.56812 5.10748,-3.4828 5.64625,-4.25485 1.18068,-1.69188 1.36023,-12.73705 0.20705,-12.73705 -0.44735,0 -4.48955,1.95 -8.98267,4.33334 -22.44309,11.90471 -37.01779,38.07115 -35.09099,63 0.62168,8.04334 4.18138,22 5.61117,22 0.26042,0 2.10068,-2.13338 4.08949,-4.74084 z m 70.13698,-81.83245 c 0.43468,-5.19422 -1.71644,-6.38711 -11.95061,-6.62714 l -5.66667,-0.13291 v 6.59699 6.59699 l 7,0.40301 c 8.27248,0.47627 10.10397,-0.70311 10.61728,-6.83694 z M 79.159114,249.27248 c 4.858384,-2.08255 6.705373,-3.88484 9.370017,-9.14326 4.656271,-9.18871 9.564835,-14.62036 18.334789,-20.28865 13.17285,-8.51402 30.76516,-10.17176 44.31907,-4.17622 l 6.05415,2.67804 6.73269,-2.84448 c 3.70297,-1.56446 6.531,-3.47158 6.28449,-4.23804 -0.70314,-2.18629 -16.79225,-9.81072 -23.93524,-11.34262 -28.00149,-6.00524 -56.765119,8.43802 -69.437935,34.8673 -5.079919,10.59423 -6.987012,17.08176 -5.0214,17.08176 0.686508,0 3.971224,-1.16722 7.299369,-2.59383 z"
       id="path1538" /></g></svg>
