<?xml version="1.0" encoding="UTF-8" standalone="no"?>
<!-- Created with Inkscape (http://www.inkscape.org/) -->

<svg
   width="512"
   height="512"
   viewBox="0 0 512 512"
   version="1.1"
   id="svg1"
   xml:space="preserve"
   inkscape:version="1.4.3 (0d15f75, 2025-12-25)"
   sodipodi:docname="dessin.svg"
   inkscape:export-filename="C:\laragon\www\formation-openclassrooms\DFSJS-D-finissez-et-d-veloppez-le-front-end-en-utilisant-du-code-React-maintenable\public\assets\images\logo\logo.svg"
   inkscape:export-xdpi="96"
   inkscape:export-ydpi="96"
   xmlns:inkscape="http://www.inkscape.org/namespaces/inkscape"
   xmlns:sodipodi="http://sodipodi.sourceforge.net/DTD/sodipodi-0.dtd"
   xmlns="http://www.w3.org/2000/svg"
   xmlns:svg="http://www.w3.org/2000/svg"><sodipodi:namedview
     id="namedview1"
     pagecolor="#ffffff"
     bordercolor="#000000"
     borderopacity="0.25"
     inkscape:showpageshadow="2"
     inkscape:pageopacity="0.0"
     inkscape:pagecheckerboard="0"
     inkscape:deskcolor="#d1d1d1"
     inkscape:document-units="px"
     inkscape:zoom="1.5097656"
     inkscape:cx="255.66882"
     inkscape:cy="256"
     inkscape:window-width="1920"
     inkscape:window-height="991"
     inkscape:window-x="-9"
     inkscape:window-y="-9"
     inkscape:window-maximized="1"
     inkscape:current-layer="layer1"><inkscape:page
       x="0"
       y="0"
       width="512"
       height="512"
       id="page2"
       margin="0"
       bleed="0" /></sodipodi:namedview><defs
     id="defs1" /><g
     inkscape:label="Calque 1"
     inkscape:groupmode="layer"
     id="layer1"><path
       style="fill:#000000;stroke-width:1.18244"
       d="M 227.21047,510.41889 C 208.21113,508.30991 175.55057,499.5778 157.09638,491.67322 82.684672,459.8001 28.179027,396.58084 8.1957152,318.96838 c -4.39914,-17.08566 -8.91321243,-45.91659 -7.4228573,-47.40904 0.6159061,-0.61678 22.2547051,-6.93086 23.7525341,-6.93086 0.325272,0 2.939609,4.79227 5.809637,10.64949 11.614505,23.70316 37.767796,41.21936 61.778249,41.37612 l 5.908041,0.0385 v -6.93109 -6.93108 l -9.653597,-1.70286 c -12.4228,-2.19128 -21.468164,-6.63966 -31.057824,-15.27378 -7.566238,-6.8123 -17.724136,-23.18585 -15.664015,-25.24889 0.579585,-0.58039 24.667361,-7.6035 53.528387,-15.60689 28.86103,-8.00339 54.04614,-15.0656 55.96693,-15.6938 2.89579,-0.94707 3.67152,-0.4273 4.54124,3.04283 1.57362,6.27866 -0.4362,21.3379 -4.18794,31.3795 -3.61794,9.68343 -18.39555,26.22538 -27.87166,31.19931 -4.7458,2.49101 -5.12031,3.26995 -5.12031,10.64948 0,4.37903 0.43249,7.96189 0.96108,7.96189 0.52859,0 5.30303,-2.30739 10.60988,-5.12754 26.76558,-14.22366 43.85514,-44.46037 41.42807,-73.29903 -0.77258,-9.17982 -0.50119,-11.62983 1.40669,-12.69905 1.30015,-0.72863 5.18798,-5.08856 8.6396,-9.68873 6.38106,-8.50435 8.23271,-15.93562 3.97074,-15.93562 -1.26771,0 -17.04218,5.3918 -35.05436,11.98179 -77.945191,28.51721 -148.8979601,54.2817 -149.48624615,54.2817 -0.34994975,0 -0.63627229,-2.7571 -0.63627229,-6.12689 0,-5.07665 0.60763606,-6.25725 3.54482424,-6.88746 5.72396,-1.22815 189.2516142,-58.18189 191.4995342,-59.42764 1.1266,-0.62433 10.52039,-8.8514 20.87508,-18.28237 15.53424,-14.14842 18.82671,-17.92353 18.82671,-21.5864 0,-2.84704 -0.82782,-4.43919 -2.3081,-4.43919 -1.8342,0 -146.10358,57.45093 -218.035737,86.82615 L 0,239.14805 1.0828339,228.61716 C 6.6654074,174.3249 31.977977,120.41839 71.012499,79.692555 105.53549,43.673731 144.98066,20.600394 192.99922,8.3367982 232.26112,-1.6904175 266.54299,-2.6215497 305.95143,5.2688934 330.96465,10.277099 344.98,14.950473 366.66699,25.514317 424.30776,53.591451 468.78973,100.93043 493.5061,160.50014 c 7.63189,18.39386 15.52363,51.45795 17.5522,73.53859 5.9181,64.41719 -16.38714,135.77703 -57.63504,184.38844 -14.39267,16.96201 -15.74302,18.34768 -28.9154,29.67166 -56.06026,48.19368 -125.88008,70.24759 -197.29739,62.32006 z M 90.030588,410.96035 c 8.496731,-17.61558 24.706732,-38.52885 39.279352,-50.67609 6.62037,-5.51851 22.67149,-17.27301 35.66918,-26.12112 12.99768,-8.84809 27.53146,-20.12863 32.29728,-25.06784 4.76582,-4.93922 14.1596,-13.82002 20.87509,-19.7351 6.71546,-5.91509 12.20994,-11.30228 12.20994,-11.97153 0,-0.66926 -2.92531,-2.09449 -6.50069,-3.16721 -7.43453,-2.23059 -21.34187,-14.42029 -24.23219,-21.23935 l -1.92715,-4.54674 -12.25983,20.65552 c -14.08561,23.73164 -18.19655,28.43213 -30.70509,35.10852 -11.5492,6.16435 -18.43487,12.854 -34.14963,33.17748 -15.50601,20.05349 -16.88853,21.28458 -25.489254,22.69768 -9.519804,1.56408 -12.831047,5.33278 -12.831047,14.60365 0,4.12451 -1.41793,12.46435 -3.150959,18.53298 -1.73303,6.06864 -3.150959,13.37879 -3.150959,16.24477 0,5.61092 3.864083,14.52042 6.297569,14.52042 0.81961,0 4.315386,-5.85722 7.768388,-13.01604 z M 205.43182,383.4266 c 14.79244,-6.932 29.86377,-21.63765 36.6501,-35.76083 6.553,-13.6376 8.00511,-18.3515 5.65316,-18.3515 -5.06889,0 -14.07408,6.85625 -19.64593,14.95775 -3.38948,4.92832 -10.70909,13.06968 -16.26581,18.09189 -9.94882,8.99186 -10.31248,9.16138 -23.80841,11.09855 -16.35711,2.34785 -26.59076,0.73549 -39.13914,-6.16658 l -8.22595,-4.52455 -5.49758,4.17602 c -3.02366,2.29681 -5.32446,4.77978 -5.11289,5.5177 0.77404,2.6996 17.84847,12.04911 26.27462,14.3873 5.85026,1.6234 13.58451,2.23126 23.80871,1.87124 12.88657,-0.45378 16.65867,-1.24324 25.30912,-5.29699 z m 0.50971,-27.61281 c 12.19966,-22.72672 23.54473,-30.50514 56.71719,-38.88649 25.08119,-6.33701 50.40257,-15.06191 57.64822,-19.86361 3.67769,-2.43723 6.54937,-5.96372 7.70039,-9.45626 5.42793,-16.46999 -24.88689,-41.88913 -70.07505,-58.75826 l -14.17929,-5.29326 11.47597,0.98053 11.47599,0.98055 7.42974,-6.91559 c 4.08637,-3.80356 12.74699,-10.37837 19.24583,-14.61069 6.49884,-4.2323 14.8011,-10.54455 18.44945,-14.0272 l 6.63334,-6.33212 1.4571,3.81698 c 1.74714,4.57674 4.57298,7.20674 15.998,14.88924 13.03483,8.76498 23.44208,13.65516 26.79375,12.58988 1.63258,-0.5189 6.54361,-4.8609 10.91341,-9.64892 8.90987,-9.76257 33.50347,-56.829 35.20593,-67.37594 1.01178,-6.26812 -2.82513,-17.50593 -5.42717,-15.8955 -0.72372,0.44791 -1.31587,0.0625 -1.31587,-0.85642 0,-0.91896 -1.38946,-1.67083 -3.0877,-1.67083 -2.28197,0 -3.58733,1.74976 -5.00228,6.70524 -2.571,9.00429 -4.61188,11.6595 -6.44312,8.38263 -4.07654,-7.29465 -6.77934,2.15484 -3.62164,12.66189 2.73088,9.08688 2.51101,9.54431 -13.74317,28.59084 l -10.62899,12.45496 -9.43557,-9.18879 c -5.18956,-5.05381 -10.48381,-11.21868 -11.76499,-13.6997 -3.03676,-5.88075 -11.74555,-13.17052 -14.47926,-12.12001 -3.83709,1.47451 -2.26322,-0.32332 3.294,-3.76272 5.07972,-3.14387 5.74685,-3.20409 10.16237,-0.91753 7.62879,3.95057 10.76614,3.142 14.23595,-3.66899 1.71374,-3.3639 4.08483,-6.48857 5.26911,-6.94365 1.63368,-0.62779 2.12507,-4.64117 2.03646,-16.63279 -0.10788,-14.59893 -0.41742,-16.12759 -4.05549,-20.02717 -2.16627,-2.322021 -5.85313,-5.219345 -8.19301,-6.438498 -5.25457,-2.737818 -18.04249,-2.846775 -23.26924,-0.198282 -6.46459,3.275747 -11.07564,11.68134 -11.07564,20.19009 0,8.84543 -2.82433,12.501 -9.65836,12.501 -3.3336,0 -4.36859,0.57538 -3.54736,1.97213 0.63774,1.08465 -1.73973,-0.982 -5.28325,-4.59258 -5.27154,-5.3713 -8.11471,-6.88741 -15.63972,-8.33983 -5.05831,-0.97632 -11.32383,-2.71535 -13.92336,-3.8645 -2.59954,-1.14915 -11.35295,-3.99579 -19.45204,-6.32589 -17.77023,-5.11247 -16.07704,-5.50364 -52.23219,12.06698 -14.29745,6.94827 -29.18572,13.80069 -33.08502,15.22763 -11.02585,4.03486 -17.06679,8.25702 -19.66802,13.74646 -3.24615,6.85041 -3.06041,7.44133 1.9439,6.18432 l 4.33256,-1.0883 -3.55923,3.79527 c -5.46738,5.82997 -2.52563,6.26166 7.64256,1.12153 5.0701,-2.563 9.6252,-4.65999 10.12243,-4.65999 0.49723,0 0.43854,2.48487 -0.13041,5.52196 -0.56896,3.03708 -0.39673,5.52195 0.38273,5.52195 1.54339,0 10.81404,-10.71793 15.47684,-17.89303 3.45969,-5.32373 5.73992,-6.30193 28.35775,-12.16523 9.53163,-2.47092 19.56908,-5.3692 22.30542,-6.44062 4.63775,-1.81591 5.36046,-1.60928 10.65575,3.04661 6.96086,6.12035 11.66185,8.58726 23.34363,12.2499 8.08765,2.53576 9.11593,3.34519 9.75621,7.67976 2.871,19.43553 3.3671,24.56653 2.37529,24.56653 -1.2438,0 -6.16009,-10.04675 -9.4687,-19.34989 -1.16177,-3.26669 -2.85235,-5.69657 -3.75685,-5.39975 -0.90449,0.29684 -4.56505,7.6291 -8.13458,16.29394 -8.93667,21.69322 -12.79901,27.23455 -27.43346,39.35904 -13.8756,11.49578 -18.85497,19.12364 -18.85497,28.88377 0,12.79371 7.13774,22.52833 22.05667,30.08142 11.63713,5.89158 22.8823,8.91032 41.75017,11.20767 15.09055,1.83744 25.61229,4.29713 19.37714,4.52983 -9.0051,0.33609 -19.87173,4.358 -30.43834,11.2657 -20.02853,13.09322 -26.17097,15.65523 -37.53333,15.65523 -6.66556,0 -10.71366,0.74039 -11.90448,2.17728 -0.99243,1.19749 -3.50331,7.76468 -5.57972,14.59375 -2.07642,6.82906 -4.9561,15.61132 -6.39927,19.51613 -1.72103,4.65659 -2.28719,9.2195 -1.64527,13.25999 1.87261,11.78697 4.37797,11.57041 11.10416,-0.95978 z m -94.35499,-19.48763 c 4.0594,-5.32966 4.2797,-6.5308 4.41273,-24.05996 0.12705,-16.73911 0.54908,-19.32814 4.55061,-27.91645 4.68295,-10.05085 15.61864,-22.43575 24.73576,-28.01379 3.0328,-1.85552 6.03505,-4.12112 6.67167,-5.03467 1.3951,-2.00195 1.60725,-15.07145 0.24465,-15.07145 -0.5286,0 -5.30489,2.30739 -10.614,5.12754 -26.51894,14.08656 -43.740526,45.04869 -41.46381,74.54641 0.73459,9.51751 4.94076,26.0321 6.63021,26.0321 0.30771,0 2.48218,-2.52437 4.83218,-5.60973 z m 82.87442,-96.83042 c 0.51362,-6.14619 -2.02816,-7.55772 -14.12093,-7.84174 l -6.69579,-0.15726 v 7.80605 7.80607 l 8.27126,0.47687 c 9.77483,0.56356 11.93894,-0.83197 12.54546,-8.08999 z M 32.438236,223.69441 c 5.740705,-2.46423 7.923122,-4.59684 11.071687,-10.819 5.501887,-10.87279 11.301886,-17.29993 21.664535,-24.00709 15.565146,-10.07443 36.352362,-12.036 52.367782,-4.94162 l 7.15363,3.16886 7.9554,-3.3658 c 4.37546,-1.8512 7.71708,-4.10785 7.4258,-5.01479 -0.83083,-2.58698 -19.84186,-11.60878 -28.28208,-13.42144 -33.086783,-7.10587 -67.07412,9.9845 -82.048422,41.25765 -6.002473,12.53591 -8.25591,20.21245 -5.933326,20.21245 0.811183,0 4.69243,-1.38114 8.624994,-3.06922 z"
       id="path1538" /></g></svg>
